<svg width="23" height="23" viewBox="0 0 23 23" fill="none" xmlns="http://www.w3.org/2000/svg">
<g clip-path="url(#clip0_29102_416)">
<path d="M17.25 15.8125H8.2818L6.44 17.3848L4.5982 15.8125H0.71875V16.8906C0.71875 18.2648 1.66795 19.3842 2.84176 19.4062C2.95092 20.0855 3.21506 20.6991 3.61262 21.1793C4.20064 21.8895 5.05551 22.2812 6.01953 22.2812H11.9492C12.9132 22.2812 13.7681 21.8895 14.3561 21.1784C14.7537 20.6982 15.0178 20.0846 15.127 19.4054C15.7505 19.3941 16.3107 19.0729 16.6993 18.5685C17.0622 18.0849 17.2557 17.4952 17.25 16.8906V15.8125ZM4.7168 14.375L6.43865 15.6413L8.17578 14.375H17.25V14.0156C17.2495 13.6015 17.1062 13.2003 16.8444 12.8795C16.5825 12.5588 16.2181 12.3381 15.8125 12.2547C15.7757 10.921 15.2285 9.80465 14.2173 9.02031C13.282 8.29078 12.0323 7.90625 10.6016 7.90625H7.36719C4.30262 7.90625 2.22678 9.64787 2.15625 12.2547C1.75066 12.3381 1.38622 12.5588 1.12436 12.8795C0.862509 13.2003 0.719256 13.6015 0.71875 14.0156V14.375H4.7168Z" fill="url(#paint0_linear_29102_416)"/>
<path d="M20.8024 4.3125H17.4517L17.8524 2.71059L19.8555 2.02148L19.4062 0.71875L16.6211 1.61719L15.9702 4.3125H9.34375V5.75H10.186L10.2696 6.46875H10.6016C12.3535 6.46875 13.9105 6.9584 15.0991 7.88469C15.7603 8.3941 16.2962 9.04789 16.666 9.79611C16.8939 10.2603 17.0561 10.7539 17.148 11.2628C17.8174 11.675 18.3138 12.3168 18.5444 13.0683C18.775 13.8198 18.724 14.6296 18.4009 15.3462C18.5902 15.8391 18.6873 16.3626 18.6875 16.8906C18.6875 17.8942 18.3461 18.8506 17.7262 19.5837C17.3425 20.0407 16.8511 20.395 16.2963 20.6146C16.1072 21.1535 15.8255 21.6551 15.4639 22.0971C15.4109 22.1609 15.3565 22.2233 15.3008 22.2835H18.6875C19.4062 22.2835 19.7207 21.9241 19.8105 21.2503L21.4457 5.75225H22.2812V4.3125H20.8024Z" fill="url(#paint1_linear_29102_416)"/>
</g>
<defs>
<linearGradient id="paint0_linear_29102_416" x1="8.98444" y1="7.90625" x2="8.98444" y2="22.2812" gradientUnits="userSpaceOnUse">
<stop stop-color="#27AE60"/>
<stop offset="1" stop-color="#346F56"/>
</linearGradient>
<linearGradient id="paint1_linear_29102_416" x1="15.8125" y1="0.71875" x2="15.8125" y2="22.2835" gradientUnits="userSpaceOnUse">
<stop stop-color="#27AE60"/>
<stop offset="1" stop-color="#346F56"/>
</linearGradient>
<clipPath id="clip0_29102_416">
<rect width="23" height="23" fill="white"/>
</clipPath>
</defs>
</svg>
